PathFileType	4	(X/Y/Z)	pose_F01_0-96.trc
DataRate	CameraRate	NumFrames	NumMarkers	Units	OrigDataRate	OrigDataStartFrame	OrigNumFrames
30	30	9	21	m	30	24	96
Frame#	Time	CHip			RHip			RKnee			RAnkle			RBigToe			RSmallToe			RHeel			LHip			LKnee			LAnkle			LBigToe			LSmallToe			LHeel			Neck			Nose			RShoulder			RElbow			RWrist			LShoulder			LElbow			LWrist			
		X1	Y1	Z1	X2	Y2	Z2	X3	Y3	Z3	X4	Y4	Z4	X5	Y5	Z5	X6	Y6	Z6	X7	Y7	Z7	X8	Y8	Z8	X9	Y9	Z9	X10	Y10	Z10	X11	Y11	Z11	X12	Y12	Z12	X13	Y13	Z13	X14	Y14	Z14	X15	Y15	Z15	X16	Y16	Z16	X17	Y17	Z17	X18	Y18	Z18	X19	Y19	Z19	X20	Y20	Z20	X21	Y21	Z21	
24	0.8	-0.21833663187261368	1.8682779729514962	-0.5995422968730321	-0.23692825972956313	1.8667914435710047	-0.5409631425465868	-0.27995639683132256	1.7105424510075258	-0.5124487700418172	-0.2694028639453092	1.5567695494589253	-0.47805313528050547							-0.25863356994696884	1.540605207281168	-0.47457187921001304	-0.20499901390267977	1.8712351493631953	-0.6518359691923775	-0.20717503840173002	1.7082341082519141	-0.6278638992942165	-0.17244973579874392	1.578407037281584	-0.6051618564347923	-0.20379385577131884	1.5364898942287115	-0.6324753877738175	-0.1866091765036919	1.5442826791139936	-0.6501428363607158	-0.15946196947616353	1.5642040409627576	-0.5912176890216836	-0.22249704385337696	2.0516154331807543	-0.6112766097597577	-0.26495899385228094	2.110101797314651	-0.6107160620861165	-0.23457486913781964	2.045543713134949	-0.5333641384520298	-0.22132241044240764	1.9558934835484152	-0.5016261180319546	-0.28458823683220613	1.9003249382981602	-0.49863716095530264	-0.20672676889094624	2.0568454550332333	-0.6917412968072153	-0.27588957774980677	2.0004605361390695	-0.7115122014164308	-0.3593608899848809	2.036728911439438	-0.6920407630587632
25	0.8333333333333334	-0.218438062120078	1.8641387107477125	-0.5990368123446228	-0.2350689967206971	1.8626477256850156	-0.5425984508483607	-0.28586786843428685	1.7110360848009707	-0.5149437447008375	-0.2786641003070531	1.5554288687570312	-0.46785641715506265							-0.25863356994696884	1.540605207281168	-0.47457187921001304	-0.2020600463970477	1.8681614620117604	-0.6506124284736184	-0.21169582468572282	1.702575403469039	-0.6308215925050119	-0.17173659550392883	1.5730147358066393	-0.6058039721037372	-0.20506613466339502	1.5349326211237433	-0.634959847679501	-0.18979579761011062	1.5414995962904419	-0.6507353792589856	-0.16059525146444217	1.566327590665246	-0.5863946426249955	-0.22276942618266252	2.0466795159115234	-0.6105979669336143	-0.268162176113366	2.104164028924822	-0.6102326984889025	-0.23269470661158503	2.043068759679847	-0.5351619629895388	-0.21945145843738031	1.9539254714921637	-0.5038661612471622	-0.2724844721543036	1.8957825176313121	-0.47678421850127983	-0.21193596457502098	2.0512656638215594	-0.6892072014208732	-0.2818351012643338	1.9936640923508722	-0.7098102397062953	-0.3696137886964573	2.030169282555344	-0.6866483658507276
26	0.8666666666666667	-0.21774029085461724	1.8630001673415124	-0.5958494345080593	-0.23220651727340225	1.861591557169569	-0.5414789704705493	-0.28901636553486076	1.7110929973288416	-0.5160385947115399	-0.28792533666879694	1.554088188055137	-0.45765969902961984							-0.25863356994696884	1.540605207281168	-0.47457187921001304	-0.2023810427362966	1.8645873049132506	-0.6500255044047195	-0.21608421352762397	1.7009762079782142	-0.6347022194926173	-0.17565269066336456	1.5753750422204842	-0.6056873754250017	-0.20422300237524635	1.535557935306103	-0.6316714018955226	-0.18847190289090326	1.542482705279213	-0.6481049508890725	-0.16395011978846163	1.559994431546246	-0.585346752977098	-0.22810795300540332	2.039206220836258	-0.6080909770586747	-0.27855979207177134	2.098978387293355	-0.6069968972961678	-0.23981036132783434	2.0366010545748257	-0.5303290772274504	-0.22050245562920304	1.9457119815694308	-0.4967346153419017	-0.2662062746446755	1.880537043698579	-0.4717264548447488	-0.22169489612764848	2.045594596611508	-0.6827207113190125	-0.28461803614642917	1.9813491525704827	-0.7065624896927407	-0.3783260884685306	2.0073675695886393	-0.6813664920343147
27	0.9	-0.21829577393695654	1.8564310177394288	-0.5947103912118819	-0.22994290197210981	1.8559824532536189	-0.5309588156346677	-0.2883893567827336	1.7078976503212187	-0.512056787252266	-0.28792533666879694	1.554088188055137	-0.45765969902961984							-0.25863356994696884	1.540605207281168	-0.47457187921001304	-0.20504910409041158	1.8578913201210716	-0.6468338162014118	-0.2268119037155669	1.6952856844154274	-0.6312587798130903	-0.17890849011241072	1.5743627809565226	-0.6030330663404571	-0.2040998600585789	1.5386244559569249	-0.6368691994152186	-0.18569267774047932	1.5479351423808303	-0.6520506300378651	-0.1679646115151693	1.5685242765886855	-0.5834859928384597	-0.23957094537432883	2.0315885312764186	-0.6079384052046031	-0.29017362404075664	2.0941001289479875	-0.6073322778322762	-0.24222859345438683	2.0278555678292265	-0.5270035916621335	-0.22199687474944968	1.9375045646158104	-0.49871259040164634	-0.2574707690400251	1.866692941847952	-0.4485876008362583	-0.23550110795583679	2.0351016860828497	-0.6887446811830098	-0.30156941594818043	1.9687074832259248	-0.6929291125358912	-0.3998199631535135	1.9969829854505925	-0.6660989195202451
28	0.9333333333333333	-0.2221576362780855	1.8508043019354203	-0.5774644502645521	-0.2314974360556757	1.8506009089698825	-0.5157117671433762	-0.29037976048239517	1.7041269102825398	-0.5007340509772387	-0.28792533666879694	1.554088188055137	-0.45765969902961984							-0.25863356994696884	1.540605207281168	-0.47457187921001304	-0.20899629280382315	1.8499631177100813	-0.6378639480797119	-0.23477620443081842	1.689360271533507	-0.6265634555692036	-0.17678700286286744	1.5744163671024949	-0.6051269799325976	-0.20430244240918774	1.5343916945418867	-0.6356764837113092	-0.18646690840394078	1.5414873825314308	-0.6541473926509559	-0.16173330335176184	1.5679797599272496	-0.5815121115451938	-0.2534939457493996	2.0217035754291146	-0.6056336162693295	-0.3063377767637355	2.083989045619374	-0.5953741263594273	-0.2505783257349457	2.02066673003215	-0.5258569180599981	-0.2228028725476908	1.9307231233366693	-0.49806070657489393	-0.24959668434583887	1.855720892175162	-0.4294770133717324	-0.2531459784628219	2.021713754173135	-0.6779815647509841	-0.31901494833051103	1.9444904059580774	-0.6866155228873995	-0.41256809865892885	1.966928012213414	-0.6532177144596584
29	0.9666666666666667	-0.21975895209605464	1.8437793031693148	-0.5699426656078449	-0.23016994959680645	1.8463316853111824	-0.5118348428891024	-0.2960478487769102	1.703667710563281	-0.49456537393306155	-0.28792533666879694	1.554088188055137	-0.45765969902961984							-0.25863356994696884	1.540605207281168	-0.47457187921001304	-0.20831165890958966	1.8437336886459936	-0.6369640852316365	-0.23909344731720808	1.6810503234817828	-0.6215292345574414	-0.17711771015389052	1.5728985349591116	-0.6046562119974234	-0.2079064676845183	1.5307013068015005	-0.635738591246822	-0.18977019662318	1.5384735888656453	-0.6550146770387176	-0.1647667821685938	1.5678084314914769	-0.5827045569704011	-0.26552215790358696	2.005844189934977	-0.5955939071694487	-0.32957660639667397	2.067986381451207	-0.5942907294447423	-0.2621224595893369	2.005494443023712	-0.524004258574076	-0.22078975680593244	1.9174315087439524	-0.4973395951313134	-0.23453595682066114	1.843893304392463	-0.4305857907518094	-0.26933978225935606	2.008006627750241	-0.6718981278568976	-0.3224757537894735	1.923030395924708	-0.6848440635566561	-0.37095513777295974	1.9274389166406667	-0.7135389901754978
30	1.0	-0.21800575857242893	1.840696032932583	-0.5630655822596439	-0.2312089586214784	1.8422904150068529	-0.5056377582549343	-0.2979658677274007	1.7031621930485945	-0.49226450795841026	-0.28792533666879694	1.554088188055137	-0.45765969902961984							-0.25863356994696884	1.540605207281168	-0.47457187921001304	-0.20750153372391114	1.8387747058218173	-0.6329737937115407	-0.2433024056085503	1.6793063218835478	-0.6171874657282796	-0.1816713402967096	1.578162029943412	-0.600132988936651	-0.2011510376052522	1.5344243584133253	-0.6345452826797704	-0.18408125067415834	1.541632527098212	-0.6485778615174534	-0.16792091793267533	1.5712334163257589	-0.5837487564175764	-0.2759390997342631	1.9923158733981061	-0.5900884701498644	-0.3446584799645447	2.0512351359739056	-0.5851963971642041	-0.2727401625284347	1.997222474496198	-0.5205443422481916	-0.22078975680593244	1.9174315087439524	-0.4973395951313134	-0.23453595682066114	1.843893304392463	-0.4305857907518094	-0.2811109589055442	1.994094234409164	-0.6704132360686347	-1.1148892249050868	1.8326421149344752	0.09283273035110512	-0.4307366328790881	1.8756873830415208	-0.6794611578110953
31	1.0333333333333334	-0.21815966497857012	1.8369365792158263	-0.5623707773583355	-0.23109274530251125	1.8382393422366727	-0.5050213967309659	-0.294720540473758	1.7009394450091893	-0.49125917164991	-0.28792533666879694	1.554088188055137	-0.45765969902961984							-0.25863356994696884	1.540605207281168	-0.47457187921001304	-0.20474443278620155	1.8349002731513082	-0.6227865016006958	-0.2486667161163213	1.677862955258758	-0.615410800734484	-0.18156046900295267	1.5777809309071702	-0.5999981742723154	-0.1999926128683298	1.5330274458471764	-0.6221665438615956	-0.18124706631960655	1.5420940282638407	-0.6381197755611789	-0.16598798456825484	1.5706572761238242	-0.5773223950734134	-0.2805027700213445	1.987436288048548	-0.5853861563392826	-0.35633966038827647	2.0431760796461904	-0.5923219071898349	-0.27712454568858924	1.989174361320592	-0.5149152833421972	-0.22078975680593244	1.9174315087439524	-0.4973395951313134	-0.23453595682066114	1.843893304392463	-0.4305857907518094	-0.2883588613837649	1.9881735067196187	-0.6654453961928468	-1.1025757157836629	1.830718303455503	0.07133371058959756	-0.47295920214337583	1.8358538130792341	-0.6539969799241577
32	1.0666666666666667	-0.21973902217431004	1.8378718943157677	-0.5602951608941544	-0.22999100140977308	1.8393649148101785	-0.5019746314067286	-0.2955719171639171	1.7011800294102433	-0.48583721021261145	-0.28792533666879694	1.554088188055137	-0.45765969902961984							-0.25863356994696884	1.540605207281168	-0.47457187921001304	-0.20535793441541464	1.834247139763908	-0.6174670182064826	-0.24802815031584227	1.6790085335996954	-0.6163309305228697	-0.18056515524483902	1.5769724197109658	-0.5970283289890453	-0.2045519854888101	1.5355957412153036	-0.63561131262214	-0.1853660345720748	1.5428533654566394	-0.6517642728237784	-0.16612709024814695	1.5688041059420328	-0.5767910615009091	-0.28854904535289033	1.9879304939649076	-0.5933694938831824	-0.3625067672031434	2.0391873779600806	-0.5927023271609876	-0.2840986529003101	1.9874900115421206	-0.5110706314710373	-0.22078975680593244	1.9174315087439524	-0.4973395951313134	-0.23453595682066114	1.843893304392463	-0.4305857907518094	-0.2914538604031306	1.9830201720058616	-0.6655238706214754	-1.0754964393596256	1.8260434227156395	0.021134308933291036	-0.895134918006497	1.7569022307570918	-0.2748474005979721
